# xmcd
#
# Track frame offsets: 
#        150
#        17068
#        33943
#        48868
#        60815
#        76300
#        88795
#        104330
#        117783
#        135855
#
# Disc length: 2127 seconds
#
# Revision: 0
# Processed by: cddbd v1.5.2PL0 Copyright (c) Steve Scherf et al.
# Submitted via: ExactAudioCopy v0.95b4
#
DISCID=69084d0a
DTITLE=Foster and Lloyd - Foster and Lloyd
DYEAR=1987
DGENRE=Western Swing
TTITLE0=Turn Around
TTITLE1=Crazy Over You
TTITLE2=What Do You Want From Me This Time?
TTITLE3=Token of Love
TTITLE4=Sure Thing
TTITLE5=Hard to Say No
TTITLE6=The Part I Know By Heart
TTITLE7=Don't Go Out With Him
TTITLE8=Texas in 1880
TTITLE9=You Can Come Cryin' to Me
EXTD=
EXTT0=
EXTT1=
EXTT2=
EXTT3=
EXTT4=
EXTT5=
EXTT6=
EXTT7=
EXTT8=
EXTT9=
PLAYORDER=
